<svg width="47" height="47" viewBox="0 0 47 47" fill="none" xmlns="http://www.w3.org/2000/svg">
<path d="M23.5 5.3775C10.5221 5.3775 0 12.4255 0 21.1166C0 28.7483 8.11533 35.107 18.8783 36.5483V31.8424C13.1522 30.0505 9.23354 26.4472 9.23354 22.2916C9.23354 16.3481 17.2314 11.5325 27.0935 11.5325C36.9596 11.5325 44.2427 14.8284 44.2427 22.2916C44.2427 26.1613 42.2863 28.9088 39.0296 30.6576C39.2058 30.7869 39.3703 30.9083 39.5348 31.0806C39.8658 31.3724 40.0244 31.7915 40.2633 32.146C44.4307 29.3064 47 25.4152 47 21.1186C47 12.4236 36.4779 5.3775 23.5 5.3775ZM19.366 15.1496V41.6184L27.3814 41.6145L27.3775 31.253H29.5317C29.9723 31.253 30.1603 31.3822 30.6068 31.7425C31.1395 32.1734 32.007 33.6656 32.007 33.6656L36.2448 41.6223L45.306 41.6184L39.6974 32.1675C39.6974 32.1675 39.529 31.7895 39.1784 31.4175C38.845 31.0861 38.4601 30.8109 38.0387 30.6028C37.2122 30.1837 35.7885 29.7529 35.7885 29.7529C35.7885 29.7529 42.7955 29.2359 42.7955 22.2603C42.7955 15.2847 35.4635 15.1515 35.4635 15.1515L19.366 15.1496ZM27.448 20.8875L32.3008 20.8914C32.3008 20.8914 34.5509 20.77 34.5509 23.0985C34.5509 25.3799 32.3008 25.3897 32.3008 25.3897H27.448V20.8875ZM30.8829 32.8705C29.9155 32.9665 28.9011 33.0252 27.8671 33.0429V36.5816C29.4346 36.3858 30.9858 36.0763 32.5083 35.6553L31.586 33.9104C31.586 33.9104 31.3745 33.552 31.1003 33.1388C31.0239 33.0331 30.9436 32.9469 30.8829 32.8705Z" fill="white"/>
</svg>
